<svg xmlns="http://www.w3.org/2000/svg" xmlns:xlink="http://www.w3.org/1999/xlink" width="795" zoomAndPan="magnify" viewBox="0 0 596.25 112.499997" height="150" preserveAspectRatio="xMidYMid meet" version="1.0"><defs><g/><clipPath id="ccba45bc01"><path d="M 521 4 L 594.558594 4 L 594.558594 102 L 521 102 Z M 521 4 " clip-rule="nonzero"/></clipPath></defs><g fill="#ffffff" fill-opacity="1"><g transform="translate(-1.164717, 101.548665)"><g><path d="M 38.0625 1.046875 C 31.65625 1.046875 25.945312 -0.046875 20.9375 -2.234375 C 15.9375 -4.429688 11.984375 -7.4375 9.078125 -11.25 C 6.179688 -15.070312 4.5625 -19.359375 4.21875 -24.109375 L 26.46875 -24.109375 C 26.738281 -21.554688 27.925781 -19.488281 30.03125 -17.90625 C 32.132812 -16.332031 34.722656 -15.546875 37.796875 -15.546875 C 40.609375 -15.546875 42.78125 -16.09375 44.3125 -17.1875 C 45.851562 -18.28125 46.625 -19.707031 46.625 -21.46875 C 46.625 -23.570312 45.523438 -25.128906 43.328125 -26.140625 C 41.140625 -27.148438 37.585938 -28.269531 32.671875 -29.5 C 27.398438 -30.726562 23.003906 -32.023438 19.484375 -33.390625 C 15.972656 -34.753906 12.941406 -36.90625 10.390625 -39.84375 C 7.847656 -42.78125 6.578125 -46.753906 6.578125 -51.765625 C 6.578125 -55.984375 7.738281 -59.828125 10.0625 -63.296875 C 12.394531 -66.765625 15.820312 -69.503906 20.34375 -71.515625 C 24.875 -73.535156 30.253906 -74.546875 36.484375 -74.546875 C 45.703125 -74.546875 52.96875 -72.265625 58.28125 -67.703125 C 63.59375 -63.140625 66.644531 -57.082031 67.4375 -49.53125 L 46.625 -49.53125 C 46.269531 -52.070312 45.148438 -54.085938 43.265625 -55.578125 C 41.378906 -57.078125 38.898438 -57.828125 35.828125 -57.828125 C 33.191406 -57.828125 31.171875 -57.320312 29.765625 -56.3125 C 28.359375 -55.300781 27.65625 -53.914062 27.65625 -52.15625 C 27.65625 -50.050781 28.773438 -48.472656 31.015625 -47.421875 C 33.253906 -46.367188 36.742188 -45.3125 41.484375 -44.25 C 46.929688 -42.851562 51.367188 -41.472656 54.796875 -40.109375 C 58.222656 -38.742188 61.226562 -36.546875 63.8125 -33.515625 C 66.40625 -30.492188 67.742188 -26.4375 67.828125 -21.34375 C 67.828125 -17.039062 66.617188 -13.195312 64.203125 -9.8125 C 61.796875 -6.425781 58.332031 -3.769531 53.8125 -1.84375 C 49.289062 0.0820312 44.039062 1.046875 38.0625 1.046875 Z M 38.0625 1.046875 "/></g></g></g><g fill="#ffffff" fill-opacity="1"><g transform="translate(65.742222, 101.548665)"><g><path d="M 3.6875 -36.875 C 3.6875 -44.425781 5.113281 -51.054688 7.96875 -56.765625 C 10.820312 -62.472656 14.707031 -66.863281 19.625 -69.9375 C 24.539062 -73.007812 30.03125 -74.546875 36.09375 -74.546875 C 41.269531 -74.546875 45.8125 -73.492188 49.71875 -71.390625 C 53.625 -69.285156 56.632812 -66.519531 58.75 -63.09375 L 58.75 -73.5 L 81.265625 -73.5 L 81.265625 0 L 58.75 0 L 58.75 -10.40625 C 56.550781 -6.976562 53.5 -4.210938 49.59375 -2.109375 C 45.6875 -0.00390625 41.140625 1.046875 35.953125 1.046875 C 29.984375 1.046875 24.539062 -0.507812 19.625 -3.625 C 14.707031 -6.738281 10.820312 -11.171875 7.96875 -16.921875 C 5.113281 -22.671875 3.6875 -29.320312 3.6875 -36.875 Z M 58.75 -36.75 C 58.75 -42.363281 57.1875 -46.796875 54.0625 -50.046875 C 50.945312 -53.296875 47.148438 -54.921875 42.671875 -54.921875 C 38.191406 -54.921875 34.394531 -53.316406 31.28125 -50.109375 C 28.164062 -46.910156 26.609375 -42.5 26.609375 -36.875 C 26.609375 -31.257812 28.164062 -26.804688 31.28125 -23.515625 C 34.394531 -20.222656 38.191406 -18.578125 42.671875 -18.578125 C 47.148438 -18.578125 50.945312 -20.195312 54.0625 -23.4375 C 57.1875 -26.6875 58.75 -31.125 58.75 -36.75 Z M 58.75 -36.75 "/></g></g></g><g fill="#ffffff" fill-opacity="1"><g transform="translate(148.585787, 101.548665)"><g><path d="M 30.6875 -61.25 C 33.320312 -65.289062 36.613281 -68.472656 40.5625 -70.796875 C 44.519531 -73.128906 48.910156 -74.296875 53.734375 -74.296875 L 53.734375 -50.453125 L 47.546875 -50.453125 C 41.929688 -50.453125 37.71875 -49.242188 34.90625 -46.828125 C 32.09375 -44.410156 30.6875 -40.171875 30.6875 -34.109375 L 30.6875 0 L 8.171875 0 L 8.171875 -73.5 L 30.6875 -73.5 Z M 30.6875 -61.25 "/></g></g></g><g fill="#ffffff" fill-opacity="1"><g transform="translate(198.370747, 101.548665)"><g><path d="M 3.6875 -36.875 C 3.6875 -44.425781 5.113281 -51.054688 7.96875 -56.765625 C 10.820312 -62.472656 14.707031 -66.863281 19.625 -69.9375 C 24.539062 -73.007812 30.03125 -74.546875 36.09375 -74.546875 C 41.269531 -74.546875 45.8125 -73.492188 49.71875 -71.390625 C 53.625 -69.285156 56.632812 -66.519531 58.75 -63.09375 L 58.75 -73.5 L 81.265625 -73.5 L 81.265625 0 L 58.75 0 L 58.75 -10.40625 C 56.550781 -6.976562 53.5 -4.210938 49.59375 -2.109375 C 45.6875 -0.00390625 41.140625 1.046875 35.953125 1.046875 C 29.984375 1.046875 24.539062 -0.507812 19.625 -3.625 C 14.707031 -6.738281 10.820312 -11.171875 7.96875 -16.921875 C 5.113281 -22.671875 3.6875 -29.320312 3.6875 -36.875 Z M 58.75 -36.75 C 58.75 -42.363281 57.1875 -46.796875 54.0625 -50.046875 C 50.945312 -53.296875 47.148438 -54.921875 42.671875 -54.921875 C 38.191406 -54.921875 34.394531 -53.316406 31.28125 -50.109375 C 28.164062 -46.910156 26.609375 -42.5 26.609375 -36.875 C 26.609375 -31.257812 28.164062 -26.804688 31.28125 -23.515625 C 34.394531 -20.222656 38.191406 -18.578125 42.671875 -18.578125 C 47.148438 -18.578125 50.945312 -20.195312 54.0625 -23.4375 C 57.1875 -26.6875 58.75 -31.125 58.75 -36.75 Z M 58.75 -36.75 "/></g></g></g><g fill="#ffffff" fill-opacity="1"><g transform="translate(281.214301, 101.548665)"><g><path d="M 52.953125 -74.296875 C 61.554688 -74.296875 68.425781 -71.503906 73.5625 -65.921875 C 78.695312 -60.347656 81.265625 -52.6875 81.265625 -42.9375 L 81.265625 0 L 58.875 0 L 58.875 -39.90625 C 58.875 -44.820312 57.597656 -48.640625 55.046875 -51.359375 C 52.503906 -54.085938 49.082031 -55.453125 44.78125 -55.453125 C 40.476562 -55.453125 37.050781 -54.085938 34.5 -51.359375 C 31.957031 -48.640625 30.6875 -44.820312 30.6875 -39.90625 L 30.6875 0 L 8.171875 0 L 8.171875 -73.5 L 30.6875 -73.5 L 30.6875 -63.75 C 32.96875 -67 36.039062 -69.566406 39.90625 -71.453125 C 43.769531 -73.347656 48.117188 -74.296875 52.953125 -74.296875 Z M 52.953125 -74.296875 "/></g></g></g><g fill="#ffffff" fill-opacity="1"><g transform="translate(363.399314, 101.548665)"><g><path d="M 38.0625 1.046875 C 31.65625 1.046875 25.945312 -0.046875 20.9375 -2.234375 C 15.9375 -4.429688 11.984375 -7.4375 9.078125 -11.25 C 6.179688 -15.070312 4.5625 -19.359375 4.21875 -24.109375 L 26.46875 -24.109375 C 26.738281 -21.554688 27.925781 -19.488281 30.03125 -17.90625 C 32.132812 -16.332031 34.722656 -15.546875 37.796875 -15.546875 C 40.609375 -15.546875 42.78125 -16.09375 44.3125 -17.1875 C 45.851562 -18.28125 46.625 -19.707031 46.625 -21.46875 C 46.625 -23.570312 45.523438 -25.128906 43.328125 -26.140625 C 41.140625 -27.148438 37.585938 -28.269531 32.671875 -29.5 C 27.398438 -30.726562 23.003906 -32.023438 19.484375 -33.390625 C 15.972656 -34.753906 12.941406 -36.90625 10.390625 -39.84375 C 7.847656 -42.78125 6.578125 -46.753906 6.578125 -51.765625 C 6.578125 -55.984375 7.738281 -59.828125 10.0625 -63.296875 C 12.394531 -66.765625 15.820312 -69.503906 20.34375 -71.515625 C 24.875 -73.535156 30.253906 -74.546875 36.484375 -74.546875 C 45.703125 -74.546875 52.96875 -72.265625 58.28125 -67.703125 C 63.59375 -63.140625 66.644531 -57.082031 67.4375 -49.53125 L 46.625 -49.53125 C 46.269531 -52.070312 45.148438 -54.085938 43.265625 -55.578125 C 41.378906 -57.078125 38.898438 -57.828125 35.828125 -57.828125 C 33.191406 -57.828125 31.171875 -57.320312 29.765625 -56.3125 C 28.359375 -55.300781 27.65625 -53.914062 27.65625 -52.15625 C 27.65625 -50.050781 28.773438 -48.472656 31.015625 -47.421875 C 33.253906 -46.367188 36.742188 -45.3125 41.484375 -44.25 C 46.929688 -42.851562 51.367188 -41.472656 54.796875 -40.109375 C 58.222656 -38.742188 61.226562 -36.546875 63.8125 -33.515625 C 66.40625 -30.492188 67.742188 -26.4375 67.828125 -21.34375 C 67.828125 -17.039062 66.617188 -13.195312 64.203125 -9.8125 C 61.796875 -6.425781 58.332031 -3.769531 53.8125 -1.84375 C 49.289062 0.0820312 44.039062 1.046875 38.0625 1.046875 Z M 38.0625 1.046875 "/></g></g></g><g fill="#ffffff" fill-opacity="1"><g transform="translate(430.306275, 101.548665)"><g><path d="M 3.6875 -36.875 C 3.6875 -44.425781 5.113281 -51.054688 7.96875 -56.765625 C 10.820312 -62.472656 14.707031 -66.863281 19.625 -69.9375 C 24.539062 -73.007812 30.03125 -74.546875 36.09375 -74.546875 C 41.269531 -74.546875 45.8125 -73.492188 49.71875 -71.390625 C 53.625 -69.285156 56.632812 -66.519531 58.75 -63.09375 L 58.75 -73.5 L 81.265625 -73.5 L 81.265625 0 L 58.75 0 L 58.75 -10.40625 C 56.550781 -6.976562 53.5 -4.210938 49.59375 -2.109375 C 45.6875 -0.00390625 41.140625 1.046875 35.953125 1.046875 C 29.984375 1.046875 24.539062 -0.507812 19.625 -3.625 C 14.707031 -6.738281 10.820312 -11.171875 7.96875 -16.921875 C 5.113281 -22.671875 3.6875 -29.320312 3.6875 -36.875 Z M 58.75 -36.75 C 58.75 -42.363281 57.1875 -46.796875 54.0625 -50.046875 C 50.945312 -53.296875 47.148438 -54.921875 42.671875 -54.921875 C 38.191406 -54.921875 34.394531 -53.316406 31.28125 -50.109375 C 28.164062 -46.910156 26.609375 -42.5 26.609375 -36.875 C 26.609375 -31.257812 28.164062 -26.804688 31.28125 -23.515625 C 34.394531 -20.222656 38.191406 -18.578125 42.671875 -18.578125 C 47.148438 -18.578125 50.945312 -20.195312 54.0625 -23.4375 C 57.1875 -26.6875 58.75 -31.125 58.75 -36.75 Z M 58.75 -36.75 "/></g></g></g><g clip-path="url(#ccba45bc01)"><g fill="#ffffff" fill-opacity="1"><g transform="translate(513.149807, 101.548665)"><g><path d="M 53.078125 0 L 30.6875 -30.828125 L 30.6875 0 L 8.171875 0 L 8.171875 -97.46875 L 30.6875 -97.46875 L 30.6875 -43.59375 L 52.953125 -73.5 L 80.75 -73.5 L 50.1875 -36.625 L 81 0 Z M 53.078125 0 "/></g></g></g></g></svg>